# xmcd CD database file
#
# Track frame offsets:
#	150
#	7703
#	62552
#	99365
#	163191
#	165493
#	180055
#	194184
#	211722
#	230071
#	232980
#	247170
#	264763
#	279017
#	291922
#	307201
#
# Disc length: 4332 seconds
#
# Revision: 0
# Processed by: cddbd v1.5.2PL0 Copyright (c) Steve Scherf et al.
# Submitted via: CDex 1.70beta2
#
DISCID=d010ea10
DTITLE=Various Artist - Jazz at the Hollywood Bowl - Disc 01 of 02
DYEAR=1956
DGENRE=Jazz
TTITLE0=Norman Granz - Introduction
TTITLE1=Jam Session - Honeysuckle rose
TTITLE2=Jam Session - Ballad Medley_  I can't get started  - If I had you  - I've got the world on a string
TTITLE3=Jam Session - Jumpin' at the Woodside
TTITLE4=Introduction to Art Tatum
TTITLE5=Art Tatum - Someone to watch over me
TTITLE6=Art Tatum - Begin the beguine
TTITLE7=Art Tatum - Willow weep for me
TTITLE8=Art Tatum - Humoresque
TTITLE9=Introduction to Ella Fitzgerald
TTITLE10=Ella Fitzgerald - Love for sale
TTITLE11=Ella Fitzgerald -  Just one of those things
TTITLE12=Ella Fitzgerald -  Little girl blue
TTITLE13=Ella Fitzgerald -  Too close for comfort
TTITLE14=Ella Fitzgerald - I can't give you anything but love
TTITLE15=Ella Fitzgerald - Airmail special
EXTD=YEAR: 1956
EXTT0=
EXTT1=
EXTT2=
EXTT3=
EXTT4=
EXTT5=
EXTT6=
EXTT7=
EXTT8=
EXTT9=
EXTT10=
EXTT11=
EXTT12=
EXTT13=
EXTT14=
EXTT15=
PLAYORDER=
